<svg width="72" height="16" viewBox="0 0 72 16" fill="none" xmlns="http://www.w3.org/2000/svg">
<path d="M0 7.68765C0 5.56215 0.717843 3.75313 2.15353 2.26059C3.61105 0.745723 5.35054 0 7.39454 0C9.43853 0 11.1801 0.745723 12.6156 2.26059C14.0732 3.75313 14.7912 5.56215 14.7912 7.68765C14.7912 9.81315 14.0732 11.6216 12.6156 13.1349C11.1803 14.6274 9.43993 15.3737 7.39454 15.3737C5.35054 15.3737 3.60948 14.6274 2.15353 13.1349C0.717494 11.6205 0 9.81206 0 7.68765ZM2.26202 7.68765C2.26202 9.17964 2.76254 10.4657 3.76357 11.5312C4.78609 12.5934 5.98209 13.1136 7.39611 13.1136C8.81013 13.1136 10.0067 12.5934 11.0077 11.5312C12.0302 10.4679 12.5276 9.17964 12.5276 7.68765C12.5276 6.19566 12.0276 4.92864 11.0077 3.86589C10.0067 2.80368 8.81013 2.26059 7.39611 2.26059C5.98209 2.26059 4.78609 2.80531 3.76357 3.86589C2.76254 4.92864 2.26202 6.19457 2.26202 7.68765Z" fill="#FFF8F8"/>
<path d="M23.5925 14.7383V5.08215L25.6706 6.80244V14.7383H23.5925Z" fill="#FFF8F8"/>
<path d="M42.9293 14.7384H40.8285V9.51732C40.8285 7.97472 41.2219 6.83786 41.9886 6.09035C42.7518 5.36045 43.752 4.9552 44.7903 4.9552C45.8285 4.9552 46.8287 5.36045 47.5919 6.09035C48.3829 6.8395 48.7742 7.99659 48.7742 9.51732V14.7384H46.6728V9.51732C46.6728 7.90582 45.9287 7.04347 44.7908 7.04347C43.6528 7.04347 42.9299 7.8834 42.9299 9.51732L42.9293 14.7384Z" fill="#FFF8F8"/>
<path d="M19.1851 14.7383H17.1138V8.98111C17.1138 6.19286 18.6183 5.08215 20.646 5.08215H21.1477V7.1676H20.7548C19.7083 7.1676 19.1851 7.7792 19.1851 8.98111V14.7383Z" fill="#FFF8F8"/>
<path d="M55.4891 12.6699L56.8658 14.7384H55.054C52.9434 14.7384 51.4635 13.6589 51.4635 10.8928V0.889404L53.5306 2.59555V5.15855H55.313L56.9643 7.22705H53.5285V10.8912C53.5285 12.0828 54.0291 12.6678 55.0519 12.6678L55.4891 12.6699Z" fill="#FFF8F8"/>
<path d="M36.0453 10.9848L35.9285 11.3223C35.7505 11.7693 35.1175 12.4594 34.2142 12.7096C33.6601 12.8648 33.0727 12.8304 32.5389 12.6114C32.005 12.3924 31.5529 12.0005 31.2495 11.4934L38.1392 9.58555C37.9539 8.67686 37.7601 6.71719 35.7358 5.54521C34.6609 4.9227 33.5215 4.80005 32.28 5.14292C30.9987 5.49779 30.0447 6.25331 29.3818 7.44382C28.7189 8.63434 28.5623 9.87119 28.8974 11.1833C29.2378 12.5166 29.964 13.5103 31.0861 14.2064C32.2239 14.8747 33.4126 15.0372 34.6933 14.6829C35.9327 14.3394 36.9067 13.4836 37.3606 12.7973C37.5873 12.4329 37.7745 12.0435 37.9188 11.6362C38.0172 11.3533 38.0759 11.1456 38.1188 10.9821L36.0453 10.9848ZM30.7877 9.60735C30.8296 8.44845 31.5275 7.48143 32.7874 7.1342C34.0268 6.79133 35.2525 7.36478 35.661 8.25876L30.7877 9.60735Z" fill="#FFF8F8"/>
<mask id="mask0_37_576" style="mask-type:luminance" maskUnits="userSpaceOnUse" x="60" y="1" width="11" height="15">
<path d="M63.4293 10.1141C65.7757 11.7826 69.0686 12.769 70.4372 15.8976C71.7052 10.475 63.1721 6.9697 62.1618 1.34131C59.134 4.24288 60.0851 7.73891 63.4272 10.1141" fill="white"/>
</mask>
<g mask="url(#mask0_37_576)">
<path d="M71.7053 1.34131H59.1361V15.8976H71.7053V1.34131Z" fill="#FFF8F8"/>
</g>
<mask id="mask1_37_576" style="mask-type:luminance" maskUnits="userSpaceOnUse" x="60" y="1" width="11" height="15">
<path d="M70.4371 1.34131H60.3364V15.8976H70.4371V1.34131Z" fill="white"/>
</mask>
<g mask="url(#mask1_37_576)">
<path fill-rule="evenodd" clip-rule="evenodd" d="M62.1616 1.34131C59.1337 4.24288 60.0849 7.73891 63.427 10.1141C65.7755 11.7826 69.0683 12.769 70.4369 15.8976C70.1007 9.91482 59.3945 8.57237 62.1616 1.34131Z" fill="#D2D2D2"/>
</g>
<mask id="mask2_37_576" style="mask-type:luminance" maskUnits="userSpaceOnUse" x="60" y="12" width="7" height="4">
<path d="M63.0904 15.4757C63.4047 15.4932 63.7294 15.4757 64.0609 15.4621C64.9325 15.4218 65.8417 15.381 66.631 15.9401C65.9836 13.817 62.3771 14.4588 60.9131 12.7571C60.4585 14.3973 61.4788 15.3848 63.0904 15.4757Z" fill="white"/>
</mask>
<g mask="url(#mask2_37_576)">
<path d="M66.4863 12.4994L60.391 12.7782L60.5366 16.2159L66.6319 15.9371L66.4863 12.4994Z" fill="#FFF8F8"/>
</g>
<mask id="mask3_37_576" style="mask-type:luminance" maskUnits="userSpaceOnUse" x="60" y="12" width="7" height="4">
<path d="M63.0904 15.4757C63.4047 15.4932 63.7294 15.4757 64.0609 15.4621C64.9325 15.4218 65.8417 15.381 66.6305 15.9401C65.3447 14.2051 61.55 15.6641 60.9131 12.7571C60.4585 14.3973 61.4788 15.3848 63.0904 15.4757Z" fill="white"/>
</mask>
<g mask="url(#mask3_37_576)">
<mask id="mask4_37_576" style="mask-type:luminance" maskUnits="userSpaceOnUse" x="60" y="12" width="7" height="5">
<path d="M66.6303 12.5023H60.3898V16.2183H66.6303V12.5023Z" fill="white"/>
</mask>
<g mask="url(#mask4_37_576)">
<path d="M66.4858 12.4995L60.391 12.7783L60.5366 16.216L66.6314 15.9372L66.4858 12.4995Z" fill="#D2D2D2"/>
</g>
</g>
<mask id="mask5_37_576" style="mask-type:luminance" maskUnits="userSpaceOnUse" x="59" y="7" width="10" height="9">
<path d="M62.9537 13.4055C64.846 14.0914 67.26 14.1333 68.7443 16C68.6474 12.0685 62.2215 11.3183 60.5397 7.68018C58.993 10.2328 60.2589 12.4288 62.9537 13.4055Z" fill="white"/>
</mask>
<g mask="url(#mask5_37_576)">
<path d="M60.1207 7.49168L58.4204 11.6069L68.6655 16.1797L70.3657 12.0645L60.1207 7.49168Z" fill="#FFF8F8"/>
</g>
<path d="M68.6216 8.13284C68.6217 7.42388 68.8938 6.744 69.3779 6.24273C69.8621 5.74147 70.5187 5.45987 71.2033 5.45987C71.2326 5.45987 71.2619 5.45987 71.2912 5.45987C71.5321 5.46789 71.7707 5.51114 72 5.58834C71.8948 5.2783 71.6993 5.00972 71.4404 4.81969C71.1815 4.62967 70.872 4.52757 70.5547 4.5275C70.5024 4.5275 70.4563 4.53021 70.4081 4.53509C69.7462 4.02586 68.9531 3.73164 68.1295 3.68976C67.3059 3.64788 66.4888 3.86021 65.7818 4.29983C66.0846 4.29326 66.3829 4.37557 66.6424 4.53726C66.081 4.57607 65.5332 4.73284 65.0322 4.99802C66.1723 6.49144 67.6244 7.87698 68.8707 9.275C68.7065 8.91752 68.6213 8.52657 68.6216 8.13068M69.971 4.6473C69.971 4.6473 69.8381 4.8316 69.7617 4.86413C69.6852 4.89665 69.389 4.60447 69.3335 4.53292C69.4172 4.58713 69.8842 4.63375 69.9726 4.64513" fill="#FFF8F8"/>
<mask id="mask6_37_576" style="mask-type:luminance" maskUnits="userSpaceOnUse" x="59" y="7" width="10" height="9">
<path d="M62.9535 13.4054C64.8459 14.0914 67.2599 14.1333 68.7442 16C67.5993 12.3825 60.0236 12.5916 60.538 7.68286C58.9913 10.2355 60.2572 12.4315 62.952 13.4082" fill="white"/>
</mask>
<g mask="url(#mask6_37_576)">
<mask id="mask7_37_576" style="mask-type:luminance" maskUnits="userSpaceOnUse" x="58" y="7" width="13" height="10">
<path d="M70.3695 7.49451H58.3309V16.4093H70.3695V7.49451Z" fill="white"/>
</mask>
<g mask="url(#mask7_37_576)">
<path d="M60.121 7.49276L58.3274 11.8341L68.5725 16.4069L70.3661 12.0655L60.121 7.49276Z" fill="#D2D2D2"/>
</g>
</g>
<path d="M23.7217 1.17141C23.9014 0.976025 24.1304 0.842992 24.3796 0.789128C24.6289 0.735263 24.8872 0.762986 25.122 0.86879C25.3567 0.974594 25.5574 1.15373 25.6986 1.38355C25.8397 1.61337 25.9151 1.88355 25.9151 2.15994C25.9151 2.43632 25.8397 2.70651 25.6986 2.93632C25.5574 3.16614 25.3567 3.34528 25.122 3.45108C24.8872 3.55689 24.6289 3.58461 24.3796 3.53074C24.1304 3.47688 23.9014 3.34385 23.7217 3.14847C23.4823 2.88532 23.348 2.5301 23.348 2.15994C23.348 1.78977 23.4823 1.43455 23.7217 1.17141Z" fill="#C50A0A"/>
<path d="M23.7217 1.17141C23.9014 0.976025 24.1304 0.842992 24.3796 0.789128C24.6289 0.735263 24.8872 0.762986 25.122 0.86879C25.3567 0.974594 25.5574 1.15373 25.6986 1.38355C25.8397 1.61337 25.9151 1.88355 25.9151 2.15994C25.9151 2.43632 25.8397 2.70651 25.6986 2.93632C25.5574 3.16614 25.3567 3.34528 25.122 3.45108C24.8872 3.55689 24.6289 3.58461 24.3796 3.53074C24.1304 3.47688 23.9014 3.34385 23.7217 3.14847C23.4823 2.88532 23.348 2.5301 23.348 2.15994C23.348 1.78977 23.4823 1.43455 23.7217 1.17141Z" fill="#C50A0A"/>
<path d="M27.6334 1.17141C27.8131 0.976025 28.0421 0.842992 28.2914 0.789128C28.5406 0.735263 28.799 0.762986 29.0337 0.86879C29.2685 0.974594 29.4691 1.15373 29.6103 1.38355C29.7515 1.61337 29.8268 1.88355 29.8268 2.15994C29.8268 2.43632 29.7515 2.70651 29.6103 2.93632C29.4691 3.16614 29.2685 3.34528 29.0337 3.45108C28.799 3.55689 28.5406 3.58461 28.2914 3.53074C28.0421 3.47688 27.8131 3.34385 27.6334 3.14847C27.394 2.88532 27.2598 2.5301 27.2598 2.15994C27.2598 1.78977 27.394 1.43455 27.6334 1.17141Z" fill="#C50A0A"/>
<path d="M31.4225 1.17181C31.6022 0.976312 31.8311 0.843167 32.0804 0.789211C32.3297 0.735255 32.5881 0.762911 32.8229 0.868682C33.0577 0.974452 33.2585 1.15359 33.3997 1.38343C33.5409 1.61327 33.6163 1.8835 33.6163 2.15993C33.6163 2.43637 33.5409 2.7066 33.3997 2.93644C33.2585 3.16628 33.0577 3.34542 32.8229 3.45119C32.5881 3.55696 32.3297 3.58462 32.0804 3.53066C31.8311 3.4767 31.6022 3.34356 31.4225 3.14806C31.1833 2.88495 31.0492 2.5299 31.0492 2.15993C31.0492 1.78997 31.1833 1.43492 31.4225 1.17181Z" fill="#C50A0A"/>
<path d="M35.3342 1.17181C35.5139 0.976312 35.7429 0.843167 35.9922 0.789211C36.2414 0.735255 36.4998 0.762911 36.7347 0.868682C36.9695 0.974452 37.1702 1.15359 37.3114 1.38343C37.4526 1.61327 37.528 1.8835 37.528 2.15993C37.528 2.43637 37.4526 2.7066 37.3114 2.93644C37.1702 3.16628 36.9695 3.34542 36.7347 3.45119C36.4998 3.55696 36.2414 3.58462 35.9922 3.53066C35.7429 3.4767 35.5139 3.34356 35.3342 3.14806C35.0951 2.88495 34.9609 2.5299 34.9609 2.15993C34.9609 1.78997 35.0951 1.43492 35.3342 1.17181Z" fill="#C50A0A"/>
</svg>
